<!-- Fond volontairement transparent : la carte fournit sa couleur, donc ce
     gabarit suit automatiquement le thème clair ou sombre. -->
<svg xmlns="http://www.w3.org/2000/svg" viewBox="0 0 160 90">
  <g stroke="#5f8f97" stroke-width=".5" opacity=".2">
    <path d="M0 10h160M0 22h160M0 34h160M0 46h160M0 58h160M0 70h160M0 82h160"/>
  </g>
  <g fill="none" stroke="#5f8f97" stroke-width="1.1" opacity=".45">
    <path d="M4 62c18-11 26 5 44-1s28-17 46-13 28 15 50 9"/>
    <path d="M0 74c22-9 34 6 54 0s30-15 50-11 36 13 56 7"/>
    <path d="M28 44l12-14 12 14zM96 40l14-17 14 17z"/>
  </g>
</svg>
